<?xml version="1.0" standalone="no"?>
<!DOCTYPE svg PUBLIC "-//W3C//DTD SVG 20010904//EN"
 "http://www.w3.org/TR/2001/REC-SVG-20010904/DTD/svg10.dtd">
<svg version="1.0" xmlns="http://www.w3.org/2000/svg"
 width="300.000000pt" height="411.000000pt" viewBox="0 0 300.000000 411.000000"
 preserveAspectRatio="xMidYMid meet">
<metadata>
Created by potrace 1.10, written by Peter Selinger 2001-2011
</metadata>
<g transform="translate(0.000000,411.000000) scale(0.100000,-0.100000)"
fill="#000000" stroke="none">
<path d="M1307 3106 c-406 -72 -722 -342 -846 -722 -83 -258 -63 -560 54 -800
193 -398 631 -643 1062 -595 262 30 477 134 656 320 95 98 161 193 208 298
281 625 -84 1345 -755 1489 -100 22 -284 26 -379 10z m399 -49 c13 -12 -14
-13 -51 -1 l-40 13 43 -3 c23 -2 45 -6 48 -9z m246 -88 c123 -65 278 -185 278
-217 0 -20 -8 -15 -64 41 -29 28 -62 58 -72 64 -10 7 -45 31 -77 53 -32 22
-62 40 -66 40 -5 0 -19 8 -32 18 -13 10 -57 29 -96 41 -40 12 -73 26 -73 30 0
13 131 -33 202 -70z m-242 40 c299 -75 561 -302 676 -589 51 -125 67 -215 67
-365 0 -91 -6 -165 -16 -211 -84 -373 -355 -652 -727 -750 -76 -20 -121 -26
-225 -26 -179 -2 -302 26 -455 102 -247 124 -421 335 -507 617 -24 80 -27 103
-27 258 -1 203 16 280 94 440 144 295 415 492 746 545 90 14 276 4 374 -21z
m-880 -167 c-31 -20 -130 -124 -130 -134 0 -5 -7 -8 -16 -8 -8 0 -13 -4 -10
-9 3 -5 -1 -11 -9 -15 -9 -3 -12 -12 -8 -22 4 -12 3 -15 -5 -10 -7 4 -12 1
-12 -8 0 -9 -4 -16 -10 -16 -5 0 -10 -4 -10 -9 0 -5 -5 -22 -11 -38 -8 -21
-12 -24 -19 -13 -5 9 0 24 16 45 13 18 21 34 18 38 -13 12 190 217 215 217 11
0 8 -5 -9 -18z m1462 -154 c23 -35 48 -69 55 -76 27 -28 101 -200 121 -282 25
-100 41 -219 36 -275 -1 -22 -5 -76 -8 -121 -4 -44 -17 -118 -31 -165 -25 -86
-82 -215 -91 -206 -3 2 4 20 14 38 22 40 65 169 83 254 19 88 17 313 -4 405
-24 102 -37 140 -85 235 -44 89 -54 107 -84 146 -16 20 -28 39 -28 43 0 12
-27 35 -34 29 -3 -4 -6 0 -6 9 0 13 9 28 16 28 2 0 22 -28 46 -62z m-1722
-190 c-20 -44 -36 -63 -26 -30 5 14 3 22 -4 22 -6 0 -10 6 -7 13 2 6 11 11 21
9 9 -2 16 4 16 13 0 9 -4 13 -10 10 -5 -3 -7 0 -4 9 4 12 9 12 18 3 11 -9 10
-19 -4 -49z m1775 -998 c-15 -22 -29 -40 -32 -40 -5 0 27 61 41 76 23 25 18 3
-9 -36z m-53 -77 c-6 -10 -20 -27 -33 -38 -24 -22 -18 -7 16 37 22 29 32 30
17 1z m-227 -219 c-16 -14 -44 -33 -62 -42 -203 -109 -398 -161 -554 -148 -41
3 -85 6 -98 6 -14 0 -54 7 -90 16 -95 23 -101 25 -101 33 0 4 37 0 83 -11 136
-30 349 -27 485 8 109 27 293 113 347 163 6 5 12 7 15 4 3 -3 -8 -16 -25 -29z"/>
<path d="M1475 2384 c-9 -14 -15 -26 -13 -27 2 -1 18 -10 35 -19 32 -17 33
-16 45 5 6 12 18 27 26 33 12 9 9 13 -18 22 -47 17 -56 15 -75 -14z"/>
<path d="M1390 2249 c-21 -44 -36 -87 -34 -94 8 -19 159 -96 176 -90 20 8 92
160 85 179 -7 18 -140 86 -169 86 -14 0 -30 -22 -58 -81z m89 25 c-12 -15 -39
-19 -39 -6 0 15 22 30 36 25 11 -4 12 -9 3 -19z m42 -33 c-16 -30 -14 -38 19
-58 41 -24 38 -37 -5 -19 -27 12 -37 12 -45 3 -6 -7 -19 -23 -31 -37 l-21 -25
7 25 c18 68 17 74 -16 93 -41 23 -30 34 13 12 33 -16 33 -16 58 14 26 32 39
27 21 -8z m59 -22 c0 -10 -7 -19 -15 -19 -9 0 -15 9 -15 25 0 18 4 23 15 19 8
-4 15 -15 15 -25z m-153 -47 c2 -18 -1 -23 -14 -20 -10 2 -19 14 -21 26 -3 18
1 23 14 20 9 -1 19 -13 21 -26z"/>
<path d="M1285 2248 c-6 -36 -4 -44 15 -60 12 -10 25 -18 29 -18 5 0 33 75 28
75 -1 0 -16 10 -34 22 l-31 22 -7 -41z"/>
<path d="M1631 2194 c-12 -32 -11 -35 16 -58 l28 -24 14 25 c15 30 4 65 -27
82 -16 8 -20 5 -31 -25z"/>
<path d="M1429 2043 c-7 -16 -15 -31 -17 -35 -2 -4 14 -10 34 -14 32 -6 40 -3
56 16 23 29 23 40 -1 40 -11 0 -23 5 -26 10 -11 18 -32 10 -46 -17z"/>
<path d="M719 1958 c0 -2 -2 -29 -3 -60 -2 -43 1 -58 11 -58 7 0 13 9 13 19 0
31 19 35 32 7 6 -14 17 -26 25 -26 18 0 16 13 -7 42 -19 25 -19 26 0 43 11 10
20 22 20 27 0 16 -19 8 -45 -19 l-25 -28 0 28 c0 15 -4 27 -10 27 -5 0 -10 -1
-11 -2z"/>
<path d="M1016 1953 c-9 -10 -7 -113 3 -113 5 0 12 10 15 23 l7 22 11 -22 c6
-13 17 -23 25 -23 11 0 10 5 -3 25 -13 20 -14 28 -4 40 7 9 10 19 6 23 -4 4
-13 -1 -20 -11 -19 -24 -29 -21 -22 7 6 24 -5 42 -18 29z"/>
<path d="M1622 1948 c-21 -21 -13 -46 18 -57 34 -11 40 -31 10 -31 -11 0 -20
3 -20 8 0 12 -50 31 -66 25 -24 -9 -15 -23 15 -23 17 0 31 -6 35 -16 4 -10 16
-14 38 -12 27 2 34 8 36 29 3 22 -2 29 -28 38 -17 6 -29 15 -25 21 4 6 13 5
25 -2 26 -16 40 0 16 18 -24 17 -38 18 -54 2z"/>
<path d="M1886 1953 c-3 -3 -6 -30 -6 -60 0 -42 3 -53 16 -53 11 0 14 5 10 16
-8 20 2 54 15 54 5 0 9 -16 9 -35 0 -24 5 -35 15 -35 22 0 20 67 -2 78 -10 5
-24 7 -32 4 -10 -3 -12 0 -8 11 6 17 -5 31 -17 20z"/>
<path d="M2060 1901 c0 -57 1 -59 28 -59 35 0 52 14 52 44 0 24 -26 45 -47 37
-8 -3 -13 4 -13 16 0 12 -4 21 -10 21 -6 0 -10 -26 -10 -59z m57 -7 c8 -21
-13 -42 -28 -27 -13 13 -5 43 11 43 6 0 13 -7 17 -16z"/>
<path d="M834 1913 c-29 -29 -6 -81 30 -67 9 4 16 1 16 -6 0 -9 -10 -11 -31
-6 -22 4 -29 2 -26 -7 2 -6 19 -12 38 -12 34 0 34 0 37 51 3 48 1 52 -23 56
-15 3 -32 0 -41 -9z m43 -19 c8 -20 -13 -42 -27 -28 -12 12 -3 44 11 44 5 0
12 -7 16 -16z"/>
<path d="M938 1919 c-23 -13 -24 -65 -2 -73 29 -11 44 -6 56 19 9 21 8 28 -7
45 -21 23 -23 23 -47 9z m38 -48 c-11 -18 -36 -13 -36 7 0 10 3 22 7 26 10 10
37 -20 29 -33z"/>
<path d="M1113 1923 c-21 -8 -14 -25 7 -18 11 4 20 2 20 -4 0 -6 -6 -11 -14
-11 -19 0 -36 -23 -28 -37 4 -7 22 -11 39 -11 30 1 31 2 26 37 -7 44 -21 56
-50 44z"/>
<path d="M1188 1905 c-15 -33 0 -61 31 -58 12 2 21 -2 21 -8 0 -7 -11 -9 -25
-7 -17 4 -25 1 -25 -9 0 -10 10 -13 33 -11 31 3 32 4 35 56 2 40 0 52 -12 52
-8 0 -21 3 -30 6 -10 4 -20 -3 -28 -21z m49 -11 c8 -20 -13 -42 -27 -28 -12
12 -3 44 11 44 5 0 12 -7 16 -16z"/>
<path d="M1293 1923 c-21 -8 -14 -25 7 -18 11 3 20 2 20 -3 0 -5 -9 -12 -20
-15 -12 -3 -20 -14 -20 -26 0 -17 6 -20 36 -19 34 1 35 2 31 36 -6 42 -24 58
-54 45z"/>
<path d="M1385 1922 c-15 -5 -20 -16 -21 -44 -1 -26 3 -38 12 -38 9 0 14 12
14 36 0 45 24 42 28 -4 2 -18 7 -32 13 -32 13 0 11 64 -3 78 -13 13 -14 13
-43 4z"/>
<path d="M1478 1919 c-11 -6 -18 -22 -18 -39 0 -23 5 -31 25 -36 47 -12 73 36
39 70 -18 19 -23 19 -46 5z m37 -35 c0 -10 -8 -20 -17 -22 -18 -3 -26 27 -11
42 12 11 28 0 28 -20z"/>
<path d="M1721 1916 c-7 -8 -11 -27 -9 -43 2 -22 9 -29 31 -31 15 -2 27 1 27
7 0 6 -9 11 -20 11 -11 0 -20 5 -20 10 0 6 11 10 25 10 29 0 32 12 9 34 -19
20 -28 20 -43 2z"/>
<path d="M1806 1914 c-19 -18 -21 -45 -4 -62 17 -17 43 -15 59 4 11 13 9 15
-17 12 -23 -2 -29 1 -29 17 0 16 6 19 30 17 29 -2 29 -2 11 13 -25 19 -31 19
-50 -1z"/>
<path d="M1984 1914 c-18 -15 -18 -15 9 -9 34 7 36 -11 1 -19 -37 -10 -28 -40
14 -44 31 -3 32 -2 32 36 0 27 -5 42 -16 46 -20 8 -17 8 -40 -10z"/>
<path d="M2164 1914 c-18 -15 -18 -15 9 -9 34 7 36 -11 1 -19 -39 -10 -28 -41
17 -43 35 -2 35 -2 31 35 -6 51 -25 63 -58 36z"/>
<path d="M996 1795 c-19 -19 -20 -29 -6 -56 12 -21 40 -25 58 -7 8 8 15 8 26
-2 9 -7 23 -10 31 -6 20 7 19 40 -1 57 -13 10 -19 8 -40 -14 -33 -36 -64 -36
-64 -1 0 23 3 26 25 21 16 -3 24 0 22 7 -6 18 -33 18 -51 1z"/>
<path d="M1611 1796 c-30 -36 10 -93 49 -68 16 10 24 10 40 0 16 -10 22 -10
32 1 11 12 10 13 -4 8 -10 -3 -20 -2 -23 3 -4 6 3 10 14 10 24 0 27 12 7 29
-10 8 -19 5 -40 -14 -37 -34 -66 -33 -66 1 0 23 3 26 25 21 16 -3 24 0 22 7
-6 17 -42 19 -56 2z"/>
<path d="M1482 1763 c2 -20 8 -38 13 -40 7 -2 9 12 7 37 -2 22 -8 40 -14 40
-5 0 -8 -17 -6 -37z"/>
<path d="M1817 1793 c-6 -11 4 -73 12 -73 7 0 6 69 -2 76 -3 3 -7 2 -10 -3z"/>
<path d="M1163 1782 c-29 -3 -33 -7 -33 -33 0 -16 5 -29 10 -29 6 0 10 11 10
25 0 34 18 32 23 -2 l4 -28 2 28 c1 34 21 36 21 2 0 -14 5 -25 10 -25 14 0 12
33 -2 51 -8 9 -26 13 -45 11z"/>
<path d="M1241 1782 c-6 -2 -10 -18 -10 -35 1 -21 3 -25 6 -12 8 34 23 41 23
12 0 -15 5 -27 10 -27 6 0 10 11 10 25 0 34 18 32 23 -2 4 -21 4 -19 3 7 -1
31 -4 35 -27 35 -15 1 -31 -1 -38 -3z"/>
<path d="M1403 1783 c-7 -2 -12 -19 -12 -36 2 -31 2 -31 6 -4 2 15 10 27 18
27 8 0 16 -12 18 -27 4 -22 4 -20 3 6 -1 35 -10 44 -33 34z"/>
<path d="M1763 1783 c-7 -2 -12 -19 -12 -36 2 -31 2 -31 6 -4 2 15 10 27 18
27 8 0 16 -12 18 -27 4 -22 4 -20 3 6 -1 35 -10 44 -33 34z"/>
<path d="M1320 1763 c1 -50 53 -59 58 -10 2 15 -1 27 -7 27 -6 0 -11 -9 -11
-19 0 -11 -4 -23 -10 -26 -6 -4 -10 5 -10 19 0 14 -4 26 -10 26 -5 0 -10 -8
-10 -17z"/>
<path d="M1510 1774 c0 -3 5 -14 11 -25 7 -15 7 -24 -2 -35 -9 -11 -8 -14 4
-14 8 0 20 14 26 31 15 44 13 58 -4 35 -13 -17 -15 -18 -15 -3 0 9 -4 17 -10
17 -5 0 -10 -3 -10 -6z"/>
<path d="M1890 1755 c0 -29 25 -44 43 -25 10 10 8 12 -5 7 -10 -3 -20 -2 -23
3 -4 6 3 10 15 10 28 0 21 24 -8 28 -18 3 -22 -2 -22 -23z"/>
</g>
</svg>
